<svg width="14" height="13" viewBox="0 0 14 13" fill="none" xmlns="http://www.w3.org/2000/svg">
<path fill-rule="evenodd" clip-rule="evenodd" d="M8.16029 1.69271C8.16029 2.25387 7.63805 2.70833 6.99458 2.70833C6.35052 2.70833 5.82887 2.25333 5.82887 1.69271C5.82887 1.13154 6.99458 0 6.99458 0C6.99458 0 8.16029 1.13208 8.16029 1.69271ZM0.268415 7.38942L1.35253 8.034L2.3463 12.0385C2.37597 12.1579 2.44831 12.2644 2.55153 12.3407C2.65475 12.4169 2.78273 12.4584 2.91458 12.4583H11.0746C11.2063 12.4583 11.3342 12.4168 11.4373 12.3405C11.5404 12.2643 11.6126 12.1578 11.6423 12.0385L12.6366 8.034L13.7202 7.38942C13.7865 7.3519 13.8441 7.30244 13.8896 7.24394C13.9351 7.18545 13.9675 7.1191 13.985 7.04879C14.0025 6.97848 14.0047 6.90562 13.9915 6.83451C13.9783 6.7634 13.9499 6.69545 13.908 6.63467C13.8662 6.57389 13.8117 6.5215 13.7477 6.48057C13.6837 6.43964 13.6116 6.41101 13.5356 6.39634C13.4596 6.38168 13.3811 6.38128 13.3049 6.39517C13.2287 6.40907 13.1563 6.43697 13.0918 6.47725L12.78 6.6625C12.5842 5.37496 11.3951 4.33333 9.89254 4.33333H7.57744V3.79167C7.57744 3.64801 7.51603 3.51023 7.40672 3.40865C7.29742 3.30707 7.14916 3.25 6.99458 3.25C6.84 3.25 6.69175 3.30707 6.58244 3.40865C6.47313 3.51023 6.41172 3.64801 6.41172 3.79167V4.33333H4.09662C2.59401 4.33333 1.40499 5.37496 1.20915 6.6625L0.897317 6.47725C0.767158 6.39975 0.6092 6.37347 0.458193 6.4042C0.307186 6.43492 0.175498 6.52014 0.0921006 6.6411C0.00870296 6.76206 -0.0195735 6.90886 0.0134919 7.0492C0.0465572 7.18953 0.138256 7.31191 0.268415 7.38942ZM3.37854 11.375L2.71292 8.69375C3.11375 8.79427 3.53307 8.81404 3.9428 8.75173C4.35252 8.68942 4.74319 8.54647 5.08864 8.33246L6.02529 7.75179C6.31251 7.57386 6.64998 7.47891 6.99516 7.47891C7.34035 7.47891 7.67782 7.57386 7.96504 7.75179L8.90169 8.33246C9.24714 8.54647 9.63781 8.68942 10.0475 8.75173C10.4573 8.81404 10.8766 8.79427 11.2774 8.69375L10.6106 11.375H3.37795H3.37854ZM9.89313 5.41667C10.1518 5.41673 10.4072 5.47012 10.641 5.57299C10.8747 5.67585 11.081 5.82563 11.245 6.01153C11.4089 6.19743 11.5265 6.41482 11.5891 6.64803C11.6518 6.88124 11.658 7.12446 11.6073 7.36017L11.461 7.44737C11.1749 7.61766 10.8417 7.70681 10.5019 7.70392C10.1622 7.70104 9.83076 7.60624 9.54808 7.43112L8.61143 6.85046C8.1327 6.55386 7.57022 6.39559 6.99487 6.39559C6.41952 6.39559 5.85704 6.55386 5.37832 6.85046L4.44167 7.43167C4.1591 7.60656 3.82787 7.70122 3.48838 7.70411C3.1489 7.707 2.81586 7.61798 2.5299 7.44792L2.38244 7.36071C2.33164 7.12496 2.33777 6.88168 2.40038 6.6484C2.46299 6.41512 2.58052 6.19766 2.7445 6.0117C2.90847 5.82574 3.1148 5.67591 3.34862 5.57301C3.58244 5.47011 3.83791 5.41672 4.09662 5.41667H9.89254H9.89313ZM5.24601 9.75C5.24601 9.60634 5.1846 9.46856 5.0753 9.36698C4.96599 9.2654 4.81774 9.20833 4.66315 9.20833C4.50857 9.20833 4.36032 9.2654 4.25101 9.36698C4.14171 9.46856 4.0803 9.60634 4.0803 9.75V10.2917C4.0803 10.4353 4.14171 10.5731 4.25101 10.6747C4.36032 10.7763 4.50857 10.8333 4.66315 10.8333C4.81774 10.8333 4.96599 10.7763 5.0753 10.6747C5.1846 10.5731 5.24601 10.4353 5.24601 10.2917V9.75ZM7.57744 9.75C7.57744 9.60634 7.51603 9.46856 7.40672 9.36698C7.29742 9.2654 7.14916 9.20833 6.99458 9.20833C6.84 9.20833 6.69175 9.2654 6.58244 9.36698C6.47313 9.46856 6.41172 9.60634 6.41172 9.75V10.2917C6.41172 10.4353 6.47313 10.5731 6.58244 10.6747C6.69175 10.7763 6.84 10.8333 6.99458 10.8333C7.14916 10.8333 7.29742 10.7763 7.40672 10.6747C7.51603 10.5731 7.57744 10.4353 7.57744 10.2917V9.75ZM9.90886 9.75C9.90886 9.60634 9.84746 9.46856 9.73815 9.36698C9.62884 9.2654 9.48059 9.20833 9.32601 9.20833C9.17142 9.20833 9.02317 9.2654 8.91387 9.36698C8.80456 9.46856 8.74315 9.60634 8.74315 9.75V10.2917C8.74315 10.4353 8.80456 10.5731 8.91387 10.6747C9.02317 10.7763 9.17142 10.8333 9.32601 10.8333C9.48059 10.8333 9.62884 10.7763 9.73815 10.6747C9.84746 10.5731 9.90886 10.4353 9.90886 10.2917V9.75Z" fill="#EAC36F"/>
</svg>
