<svg width="16" height="16" viewBox="0 0 16 16" fill="none" xmlns="http://www.w3.org/2000/svg">
<g clip-path="url(#clip0_1052_5104)">
<path d="M14.2221 5.87564V13.3334H1.77767V3.55564H3.11101V2.66675H1.66656C1.56267 2.66848 1.46013 2.69067 1.36482 2.73204C1.2695 2.77341 1.18326 2.83315 1.11104 2.90785C1.03881 2.98256 0.982007 3.07076 0.943873 3.16742C0.905739 3.26407 0.88702 3.3673 0.888786 3.47119V13.4179C0.88702 13.5218 0.905739 13.625 0.943873 13.7216C0.982007 13.8183 1.03881 13.9065 1.11104 13.9812C1.18326 14.0559 1.2695 14.1156 1.36482 14.157C1.46013 14.1984 1.56267 14.2206 1.66656 14.2223H14.3332C14.4371 14.2206 14.5397 14.1984 14.635 14.157C14.7303 14.1156 14.8165 14.0559 14.8888 13.9812C14.961 13.9065 15.0178 13.8183 15.0559 13.7216C15.0941 13.625 15.1128 13.5218 15.111 13.4179V5.48453C14.8355 5.65788 14.536 5.78966 14.2221 5.87564Z" fill="#F0CC79"/>
<path d="M3.55566 6.22217H4.44455V7.11106H3.55566V6.22217Z" fill="#F0CC79"/>
<path d="M6.22266 6.22217H7.11155V7.11106H6.22266V6.22217Z" fill="#F0CC79"/>
<path d="M8.88867 6.22217H9.77756V7.11106H8.88867V6.22217Z" fill="#F0CC79"/>
<path d="M11.5557 6.22217H12.4446V7.11106H11.5557V6.22217Z" fill="#F0CC79"/>
<path d="M3.55566 8.44434H4.44455V9.33322H3.55566V8.44434Z" fill="#F0CC79"/>
<path d="M6.22266 8.44434H7.11155V9.33322H6.22266V8.44434Z" fill="#F0CC79"/>
<path d="M8.88867 8.44434H9.77756V9.33322H8.88867V8.44434Z" fill="#F0CC79"/>
<path d="M11.5557 8.44434H12.4446V9.33322H11.5557V8.44434Z" fill="#F0CC79"/>
<path d="M3.55566 10.6667H4.44455V11.5556H3.55566V10.6667Z" fill="#F0CC79"/>
<path d="M6.22266 10.6667H7.11155V11.5556H6.22266V10.6667Z" fill="#F0CC79"/>
<path d="M8.88867 10.6667H9.77756V11.5556H8.88867V10.6667Z" fill="#F0CC79"/>
<path d="M11.5557 10.6667H12.4446V11.5556H11.5557V10.6667Z" fill="#F0CC79"/>
<path d="M4.44444 4.44447C4.56232 4.44447 4.67536 4.39765 4.75871 4.3143C4.84206 4.23095 4.88889 4.1179 4.88889 4.00003V1.33336C4.88889 1.21549 4.84206 1.10244 4.75871 1.01909C4.67536 0.935741 4.56232 0.888916 4.44444 0.888916C4.32657 0.888916 4.21352 0.935741 4.13017 1.01909C4.04683 1.10244 4 1.21549 4 1.33336V4.00003C4 4.1179 4.04683 4.23095 4.13017 4.3143C4.21352 4.39765 4.32657 4.44447 4.44444 4.44447Z" fill="#F0CC79"/>
<path d="M9.99957 2.66675H5.77734V3.55564H10.124C10.0426 3.26632 10.0007 2.9673 9.99957 2.66675Z" fill="#F0CC79"/>
<path d="M13.3336 4.88878C14.5608 4.88878 15.5558 3.89386 15.5558 2.66656C15.5558 1.43926 14.5608 0.444336 13.3336 0.444336C12.1063 0.444336 11.1113 1.43926 11.1113 2.66656C11.1113 3.89386 12.1063 4.88878 13.3336 4.88878Z" fill="#F0CC79"/>
</g>
<defs>
<clipPath id="clip0_1052_5104">
<rect width="16" height="16" fill="white"/>
</clipPath>
</defs>
</svg>
