<svg width="15" height="16" viewBox="0 0 15 16" fill="none" xmlns="http://www.w3.org/2000/svg">
<path fill-rule="evenodd" clip-rule="evenodd" d="M5.96851 0C5.76543 0 5.57066 0.0842854 5.42705 0.234315C5.28345 0.384344 5.20277 0.587827 5.20277 0.8V2.0656C4.67468 2.28907 4.17906 2.5885 3.73025 2.9552L2.68041 2.3216C2.50454 2.21552 2.29553 2.18677 2.09937 2.24168C1.9032 2.29659 1.73595 2.43066 1.63441 2.6144L0.102918 5.3856C0.00137915 5.56934 -0.0261375 5.7877 0.0264215 5.99264C0.0789804 6.19758 0.20731 6.37231 0.383181 6.4784L1.43225 7.1112C1.35372 7.70089 1.35372 8.29911 1.43225 8.8888L0.383181 9.5208C0.295997 9.57333 0.21958 9.6433 0.158301 9.72671C0.0970224 9.81012 0.052083 9.90533 0.0260534 10.0069C2.38108e-05 10.1085 -0.00658544 10.2144 0.00660376 10.3186C0.0197929 10.4229 0.0525218 10.5234 0.102918 10.6144L1.63441 13.3856C1.73595 13.5693 1.9032 13.7034 2.09937 13.7583C2.29553 13.8132 2.50454 13.7845 2.68041 13.6784L3.73025 13.0448C4.17514 13.4088 4.67058 13.7088 5.20277 13.9344V15.2C5.20277 15.4122 5.28345 15.6157 5.42705 15.7657C5.57066 15.9157 5.76543 16 5.96851 16H9.03149C9.23457 16 9.42934 15.9157 9.57295 15.7657C9.71655 15.6157 9.79723 15.4122 9.79723 15.2V13.9344C10.3253 13.7109 10.8209 13.4115 11.2698 13.0448L12.3196 13.6784C12.4955 13.7845 12.7045 13.8132 12.9006 13.7583C13.0968 13.7034 13.264 13.5693 13.3656 13.3856L14.8971 10.6144C14.9986 10.4307 15.0261 10.2123 14.9736 10.0074C14.921 9.80242 14.7927 9.62769 14.6168 9.5216L13.5677 8.8888C13.6463 8.29911 13.6463 7.70089 13.5677 7.1112L14.6168 6.4792C14.704 6.42667 14.7804 6.3567 14.8417 6.27329C14.903 6.18988 14.9479 6.09467 14.9739 5.9931C15 5.89153 15.0066 5.78559 14.9934 5.68136C14.9802 5.57712 14.9475 5.47661 14.8971 5.3856L13.3656 2.6144C13.264 2.43066 13.0968 2.29659 12.9006 2.24168C12.7045 2.18677 12.4955 2.21552 12.3196 2.3216L11.2698 2.9552C10.8209 2.58851 10.3253 2.28908 9.79723 2.0656V0.8C9.79723 0.587827 9.71655 0.384344 9.57295 0.234315C9.42934 0.0842854 9.23457 0 9.03149 0H5.96851ZM6.73426 2.632V1.6H8.26574V2.632C8.26583 2.80431 8.31917 2.97199 8.41782 3.11008C8.51647 3.24817 8.65516 3.34929 8.81325 3.3984C9.5027 3.61351 10.1341 3.99497 10.6564 4.512C10.7762 4.63061 10.9295 4.70559 11.0934 4.72578C11.2574 4.74596 11.4232 4.71026 11.5661 4.624L12.4222 4.1072L13.1879 5.4928L12.3326 6.0088C12.1899 6.09488 12.0775 6.22678 12.0123 6.38489C11.947 6.54299 11.9323 6.71888 11.9704 6.8864C12.137 7.6186 12.137 8.3814 11.9704 9.1136C11.9323 9.28112 11.947 9.45701 12.0123 9.61512C12.0775 9.77322 12.1899 9.90512 12.3326 9.9912L13.1879 10.5072L12.4222 11.8928L11.5653 11.376C11.4225 11.2899 11.2569 11.2543 11.0931 11.2745C10.9293 11.2947 10.7762 11.3696 10.6564 11.488C10.1341 12.0051 9.50272 12.3865 8.81325 12.6016C8.65516 12.6507 8.51647 12.7518 8.41782 12.8899C8.31917 13.028 8.26583 13.1957 8.26574 13.368V14.4H6.73426V13.368C6.73417 13.1957 6.68083 13.028 6.58218 12.8899C6.48353 12.7518 6.34484 12.6507 6.18675 12.6016C5.49729 12.3865 4.86591 12.0051 4.34361 11.488C4.22378 11.3694 4.07048 11.2944 3.90655 11.2742C3.74262 11.254 3.57683 11.2897 3.4339 11.376L2.5778 11.8928L1.81206 10.5072L2.66739 9.9912C2.81012 9.90512 2.92246 9.77322 2.98771 9.61512C3.05297 9.45701 3.06765 9.28112 3.02959 9.1136C2.86302 8.3814 2.86302 7.6186 3.02959 6.8864C3.06765 6.71888 3.05297 6.54299 2.98771 6.38489C2.92246 6.22678 2.81012 6.09488 2.66739 6.0088L1.81206 5.4928L2.5778 4.1072L3.4339 4.624C3.57683 4.71026 3.74262 4.74596 3.90655 4.72578C4.07048 4.70559 4.22378 4.63061 4.34361 4.512C4.86593 3.99497 5.4973 3.61351 6.18675 3.3984C6.34484 3.34929 6.48353 3.24817 6.58218 3.11008C6.68083 2.97199 6.73417 2.80431 6.73426 2.632ZM5.96851 8C5.96851 7.57565 6.12987 7.16869 6.41707 6.86863C6.70428 6.56857 7.09382 6.4 7.5 6.4C7.90617 6.4 8.29571 6.56857 8.58292 6.86863C8.87013 7.16869 9.03149 7.57565 9.03149 8C9.03149 8.42435 8.87013 8.83131 8.58292 9.13137C8.29571 9.43143 7.90617 9.6 7.5 9.6C7.09382 9.6 6.70428 9.43143 6.41707 9.13137C6.12987 8.83131 5.96851 8.42435 5.96851 8ZM7.5 4.8C6.68765 4.8 5.90857 5.13714 5.33415 5.73726C4.75973 6.33737 4.43703 7.15131 4.43703 8C4.43703 8.84869 4.75973 9.66263 5.33415 10.2627C5.90857 10.8629 6.68765 11.2 7.5 11.2C8.31235 11.2 9.09143 10.8629 9.66585 10.2627C10.2403 9.66263 10.563 8.84869 10.563 8C10.563 7.15131 10.2403 6.33737 9.66585 5.73726C9.09143 5.13714 8.31235 4.8 7.5 4.8Z" fill="white"/>
</svg>
