<svg width="12" height="12" viewBox="0 0 12 12" fill="none" xmlns="http://www.w3.org/2000/svg">
<path fill-rule="evenodd" clip-rule="evenodd" d="M4.5 2.79995C4.5 2.5616 4.60536 2.33301 4.79289 2.16447C4.98043 1.99593 5.23478 1.90125 5.5 1.90125H6.5C6.76522 1.90125 7.01957 1.99593 7.20711 2.16447C7.39464 2.33301 7.5 2.5616 7.5 2.79995V3.2493H9.5C9.63261 3.2493 9.75979 3.29664 9.85355 3.38091C9.94732 3.46518 10 3.57947 10 3.69865C10 3.81782 9.94732 3.93212 9.85355 4.01639C9.75979 4.10066 9.63261 4.148 9.5 4.148H9V8.64151C9 8.99904 8.84196 9.34192 8.56066 9.59473C8.27936 9.84754 7.89782 9.98956 7.5 9.98956H4.5C4.10218 9.98956 3.72064 9.84754 3.43934 9.59473C3.15804 9.34192 3 8.99904 3 8.64151V4.148H2.5C2.36739 4.148 2.24021 4.10066 2.14645 4.01639C2.05268 3.93212 2 3.81782 2 3.69865C2 3.57947 2.05268 3.46518 2.14645 3.38091C2.24021 3.29664 2.36739 3.2493 2.5 3.2493H4.5V2.79995ZM5 4.148H4V8.64151C4 8.76069 4.05268 8.87498 4.14645 8.95925C4.24021 9.04352 4.36739 9.09086 4.5 9.09086H7.5C7.63261 9.09086 7.75979 9.04352 7.85355 8.95925C7.94732 8.87498 8 8.76069 8 8.64151V4.148H5ZM6.5 3.2493H5.5V2.79995H6.5V3.2493ZM5 4.59735C5.13261 4.59735 5.25979 4.64469 5.35355 4.72896C5.44732 4.81323 5.5 4.92753 5.5 5.0467V8.19216C5.5 8.31134 5.44732 8.42563 5.35355 8.5099C5.25979 8.59417 5.13261 8.64151 5 8.64151C4.86739 8.64151 4.74021 8.59417 4.64645 8.5099C4.55268 8.42563 4.5 8.31134 4.5 8.19216V5.0467C4.5 4.92753 4.55268 4.81323 4.64645 4.72896C4.74021 4.64469 4.86739 4.59735 5 4.59735ZM7 4.59735C7.13261 4.59735 7.25979 4.64469 7.35355 4.72896C7.44732 4.81323 7.5 4.92753 7.5 5.0467V8.19216C7.5 8.31134 7.44732 8.42563 7.35355 8.5099C7.25979 8.59417 7.13261 8.64151 7 8.64151C6.86739 8.64151 6.74021 8.59417 6.64645 8.5099C6.55268 8.42563 6.5 8.31134 6.5 8.19216V5.0467C6.5 4.92753 6.55268 4.81323 6.64645 4.72896C6.74021 4.64469 6.86739 4.59735 7 4.59735Z" fill="white"/>
</svg>
