<svg width="12" height="8" viewBox="0 0 12 8" fill="none" xmlns="http://www.w3.org/2000/svg">
<path fill-rule="evenodd" clip-rule="evenodd" d="M3.15065 5.84492C2.38915 5.23216 1.84565 4.53234 1.59015 4.17049C1.84515 3.80865 2.38915 3.10882 3.15065 2.49607C3.93715 1.86366 4.90815 1.36184 6.00015 1.36184C7.09215 1.36184 8.06315 1.86366 8.84965 2.49607C9.61115 3.10882 10.1546 3.80865 10.4101 4.17049C10.1551 4.53234 9.61115 5.23216 8.84965 5.84492C8.06315 6.47733 7.09215 6.97914 6.00015 6.97914C4.90815 6.97914 3.93715 6.47733 3.15065 5.84492ZM6.00015 0.425629C4.57415 0.425629 3.37865 1.07864 2.49915 1.78595C1.61665 2.49607 1.00415 3.29888 0.732149 3.68834C0.631665 3.83155 0.578125 3.99915 0.578125 4.17049C0.578125 4.34184 0.631665 4.50944 0.732149 4.65264C1.00415 5.04211 1.61665 5.84492 2.49915 6.55504C3.37915 7.26235 4.57415 7.91536 6.00015 7.91536C7.42615 7.91536 8.62165 7.26235 9.50115 6.55504C10.3836 5.84492 10.9961 5.04211 11.2681 4.65264C11.4736 4.35867 11.4736 3.98278 11.2681 3.68834C10.9961 3.29888 10.3836 2.49607 9.50115 1.78595C8.62115 1.07864 7.42615 0.425629 6.00015 0.425629ZM5.00015 4.17049C5.00015 3.92219 5.10551 3.68406 5.29304 3.50849C5.48058 3.33291 5.73493 3.23428 6.00015 3.23428C6.26537 3.23428 6.51972 3.33291 6.70726 3.50849C6.89479 3.68406 7.00015 3.92219 7.00015 4.17049C7.00015 4.41879 6.89479 4.65692 6.70726 4.8325C6.51972 5.00807 6.26537 5.10671 6.00015 5.10671C5.73493 5.10671 5.48058 5.00807 5.29304 4.8325C5.10551 4.65692 5.00015 4.41879 5.00015 4.17049ZM6.00015 2.29806C5.46972 2.29806 4.96101 2.49533 4.58594 2.84648C4.21086 3.19763 4.00015 3.67389 4.00015 4.17049C4.00015 4.66709 4.21086 5.14335 4.58594 5.4945C4.96101 5.84565 5.46972 6.04293 6.00015 6.04293C6.53058 6.04293 7.03929 5.84565 7.41436 5.4945C7.78944 5.14335 8.00015 4.66709 8.00015 4.17049C8.00015 3.67389 7.78944 3.19763 7.41436 2.84648C7.03929 2.49533 6.53058 2.29806 6.00015 2.29806V2.29806Z" fill="white"/>
</svg>
