<svg width="11" height="11" viewBox="0 0 11 11" fill="none" xmlns="http://www.w3.org/2000/svg">
<path fill-rule="evenodd" clip-rule="evenodd" d="M9.68078 1.60438C9.42293 1.37272 9.07326 1.24258 8.70866 1.24258C8.34406 1.24258 7.99438 1.37272 7.73653 1.60438L6.96653 2.29639L3.34295 5.55291C3.28426 5.60563 3.2426 5.67169 3.22241 5.74403L2.76408 7.39165C2.74484 7.46068 2.74583 7.53301 2.76695 7.60159C2.78806 7.67018 2.82859 7.73267 2.88458 7.78299C2.94057 7.83331 3.01011 7.86973 3.08643 7.88871C3.16274 7.90769 3.24322 7.90858 3.32003 7.89129L5.15337 7.47939C5.23386 7.46124 5.30736 7.4238 5.36603 7.37106L8.96349 4.13842L9.75962 3.42253C10.0174 3.1908 10.1622 2.87655 10.1622 2.54888C10.1622 2.22122 10.0174 1.90696 9.75962 1.67523L9.68078 1.60438ZM8.38462 2.18682C8.47057 2.1096 8.58713 2.06622 8.70866 2.06622C8.83019 2.06622 8.94675 2.1096 9.0327 2.18682L9.11153 2.25767C9.19746 2.33491 9.24573 2.43966 9.24573 2.54888C9.24573 2.65811 9.19746 2.76286 9.11153 2.8401L8.64541 3.25901L7.9327 2.59296L8.38462 2.18682ZM7.28462 3.17539L7.99733 3.84144L4.80733 6.70789L3.83841 6.92579L4.08087 6.05461L7.28462 3.17539ZM1.83366 3.7846C1.83366 3.67535 1.88195 3.57058 1.9679 3.49334C2.05386 3.41609 2.17043 3.37269 2.29199 3.37269H4.58366C4.70522 3.37269 4.8218 3.3293 4.90775 3.25205C4.9937 3.1748 5.04199 3.07003 5.04199 2.96079C5.04199 2.85154 4.9937 2.74677 4.90775 2.66953C4.8218 2.59228 4.70522 2.54888 4.58366 2.54888H2.29199C1.92732 2.54888 1.57758 2.67907 1.31972 2.91082C1.06186 3.14256 0.916992 3.45687 0.916992 3.7846V8.31555C0.916992 8.64329 1.06186 8.95759 1.31972 9.18934C1.57758 9.42108 1.92732 9.55127 2.29199 9.55127H7.33366C7.69833 9.55127 8.04807 9.42108 8.30593 9.18934C8.56379 8.95759 8.70866 8.64329 8.70866 8.31555V6.25603C8.70866 6.14678 8.66037 6.04201 8.57442 5.96477C8.48846 5.88752 8.37188 5.84412 8.25033 5.84412C8.12877 5.84412 8.01219 5.88752 7.92623 5.96477C7.84028 6.04201 7.79199 6.14678 7.79199 6.25603V8.31555C7.79199 8.4248 7.7437 8.52957 7.65775 8.60681C7.5718 8.68406 7.45522 8.72746 7.33366 8.72746H2.29199C2.17043 8.72746 2.05386 8.68406 1.9679 8.60681C1.88195 8.52957 1.83366 8.4248 1.83366 8.31555V3.7846Z" fill="white"/>
</svg>
