<svg width="15" height="15" viewBox="0 0 15 15" fill="none" xmlns="http://www.w3.org/2000/svg">
<path fill-rule="evenodd" clip-rule="evenodd" d="M1.875 7.50003C1.875 6.76134 2.02049 6.02989 2.30318 5.34744C2.58586 4.66498 3.00019 4.04488 3.52252 3.52255C4.04485 3.00022 4.66495 2.58589 5.34741 2.30321C6.02986 2.02053 6.76131 1.87503 7.5 1.87503C8.23869 1.87503 8.97014 2.02053 9.65259 2.30321C10.3351 2.58589 10.9551 3.00022 11.4775 3.52255C11.9998 4.04488 12.4141 4.66498 12.6968 5.34744C12.9795 6.02989 13.125 6.76134 13.125 7.50003C13.125 8.99187 12.5324 10.4226 11.4775 11.4775C10.4226 12.5324 8.99184 13.125 7.5 13.125C6.00816 13.125 4.57742 12.5324 3.52252 11.4775C2.46763 10.4226 1.875 8.99187 1.875 7.50003V7.50003ZM7.5 0.625031C3.70313 0.625031 0.625 3.70316 0.625 7.50003C0.625 11.2969 3.70313 14.375 7.5 14.375C11.2969 14.375 14.375 11.2969 14.375 7.50003C14.375 3.70316 11.2969 0.625031 7.5 0.625031ZM8.125 4.37503C8.125 4.20927 8.05915 4.0503 7.94194 3.93309C7.82473 3.81588 7.66576 3.75003 7.5 3.75003C7.33424 3.75003 7.17527 3.81588 7.05806 3.93309C6.94085 4.0503 6.875 4.20927 6.875 4.37503V6.87503H4.375C4.20924 6.87503 4.05027 6.94088 3.93306 7.05809C3.81585 7.1753 3.75 7.33427 3.75 7.50003C3.75 7.66579 3.81585 7.82476 3.93306 7.94197C4.05027 8.05918 4.20924 8.12503 4.375 8.12503H6.875V10.625C6.875 10.7908 6.94085 10.9498 7.05806 11.067C7.17527 11.1842 7.33424 11.25 7.5 11.25C7.66576 11.25 7.82473 11.1842 7.94194 11.067C8.05915 10.9498 8.125 10.7908 8.125 10.625V8.12503H10.625C10.7908 8.12503 10.9497 8.05918 11.0669 7.94197C11.1842 7.82476 11.25 7.66579 11.25 7.50003C11.25 7.33427 11.1842 7.1753 11.0669 7.05809C10.9497 6.94088 10.7908 6.87503 10.625 6.87503H8.125V4.37503Z" fill="white"/>
</svg>
