<svg width="15" height="16" viewBox="0 0 15 16" fill="none" xmlns="http://www.w3.org/2000/svg">
<path fill-rule="evenodd" clip-rule="evenodd" d="M6.7836 2.75409C7.05548 2.08539 7.94548 2.08539 8.21735 2.75409L9.45485 5.79824L12.5511 6.11292C13.2311 6.18159 13.5061 7.0843 12.9936 7.56699L10.6624 9.7631L11.3386 13.0013C11.4874 13.7133 10.7674 14.2707 10.1786 13.9L7.50048 12.2139L4.82235 13.9006C4.2336 14.2713 3.5136 13.714 3.66235 13.0019L4.3386 9.76377L2.00735 7.56766C1.49485 7.08497 1.76985 6.18226 2.45048 6.11359L5.5461 5.7989L6.7836 2.75475V2.75409ZM7.50048 4.34283L6.5461 6.68961L6.39985 7.05097L6.03235 7.0883L3.64485 7.33098L5.44235 9.0244L5.71923 9.28441L5.63923 9.66843L5.11735 12.1659L7.18298 10.8652L7.50048 10.6651L7.81798 10.8652L9.8836 12.1652L9.36173 9.66843L9.28173 9.28441L9.5586 9.0244L11.3561 7.33098L8.9686 7.0883L8.6011 7.05097L8.45485 6.68961L7.50048 4.34283Z" fill="white"/>
</svg>
