<svg width="16" height="15" viewBox="0 0 16 15" fill="none" xmlns="http://www.w3.org/2000/svg">
<g id="Calendar">
<path id="Vector" fill-rule="evenodd" clip-rule="evenodd" d="M2.66667 1.875C2.84348 1.875 3.01305 1.94085 3.13807 2.05807C3.2631 2.17528 3.33333 2.33426 3.33333 2.50003V3.12506H4.66667V2.50003C4.66667 2.33426 4.7369 2.17528 4.86193 2.05807C4.98695 1.94085 5.15652 1.875 5.33333 1.875C5.51014 1.875 5.67971 1.94085 5.80474 2.05807C5.92976 2.17528 6 2.33426 6 2.50003V3.12506H7.33333V2.50003C7.33333 2.33426 7.40357 2.17528 7.5286 2.05807C7.65362 1.94085 7.82319 1.875 8 1.875C8.17681 1.875 8.34638 1.94085 8.4714 2.05807C8.59643 2.17528 8.66667 2.33426 8.66667 2.50003V3.12506H10V2.50003C10 2.33426 10.0702 2.17528 10.1953 2.05807C10.3203 1.94085 10.4899 1.875 10.6667 1.875C10.8435 1.875 11.013 1.94085 11.1381 2.05807C11.2631 2.17528 11.3333 2.33426 11.3333 2.50003V3.12506H12.6667V2.50003C12.6667 2.33426 12.7369 2.17528 12.8619 2.05807C12.987 1.94085 13.1565 1.875 13.3333 1.875C13.5101 1.875 13.6797 1.94085 13.8047 2.05807C13.9298 2.17528 14 2.33426 14 2.50003V11.2505C14 11.7478 13.7893 12.2247 13.4142 12.5763C13.0391 12.928 12.5304 13.1255 12 13.1255H4C3.46957 13.1255 2.96086 12.928 2.58579 12.5763C2.21071 12.2247 2 11.7478 2 11.2505V2.50003C2 2.33426 2.07024 2.17528 2.19526 2.05807C2.32029 1.94085 2.48986 1.875 2.66667 1.875ZM12.6667 4.37512H3.33333V11.2505C3.33333 11.4162 3.40357 11.5752 3.5286 11.6924C3.65362 11.8096 3.82319 11.8755 4 11.8755H12C12.1768 11.8755 12.3464 11.8096 12.4714 11.6924C12.5964 11.5752 12.6667 11.4162 12.6667 11.2505V4.37512ZM8.66667 6.25021C8.66667 6.41598 8.59643 6.57496 8.4714 6.69218C8.34638 6.80939 8.17681 6.87524 8 6.87524C7.82319 6.87524 7.65362 6.80939 7.5286 6.69218C7.40357 6.57496 7.33333 6.41598 7.33333 6.25021C7.33333 6.08444 7.40357 5.92547 7.5286 5.80825C7.65362 5.69103 7.82319 5.62518 8 5.62518C8.17681 5.62518 8.34638 5.69103 8.4714 5.80825C8.59643 5.92547 8.66667 6.08444 8.66667 6.25021ZM10.6667 6.87524C10.8435 6.87524 11.013 6.80939 11.1381 6.69218C11.2631 6.57496 11.3333 6.41598 11.3333 6.25021C11.3333 6.08444 11.2631 5.92547 11.1381 5.80825C11.013 5.69103 10.8435 5.62518 10.6667 5.62518C10.4899 5.62518 10.3203 5.69103 10.1953 5.80825C10.0702 5.92547 10 6.08444 10 6.25021C10 6.41598 10.0702 6.57496 10.1953 6.69218C10.3203 6.80939 10.4899 6.87524 10.6667 6.87524ZM6 8.1253C6 8.29107 5.92976 8.45005 5.80474 8.56727C5.67971 8.68448 5.51014 8.75033 5.33333 8.75033C5.15652 8.75033 4.98695 8.68448 4.86193 8.56727C4.7369 8.45005 4.66667 8.29107 4.66667 8.1253C4.66667 7.95954 4.7369 7.80056 4.86193 7.68334C4.98695 7.56612 5.15652 7.50027 5.33333 7.50027C5.51014 7.50027 5.67971 7.56612 5.80474 7.68334C5.92976 7.80056 6 7.95954 6 8.1253ZM8 8.75033C8.17681 8.75033 8.34638 8.68448 8.4714 8.56727C8.59643 8.45005 8.66667 8.29107 8.66667 8.1253C8.66667 7.95954 8.59643 7.80056 8.4714 7.68334C8.34638 7.56612 8.17681 7.50027 8 7.50027C7.82319 7.50027 7.65362 7.56612 7.5286 7.68334C7.40357 7.80056 7.33333 7.95954 7.33333 8.1253C7.33333 8.29107 7.40357 8.45005 7.5286 8.56727C7.65362 8.68448 7.82319 8.75033 8 8.75033ZM11.3333 8.1253C11.3333 8.29107 11.2631 8.45005 11.1381 8.56727C11.013 8.68448 10.8435 8.75033 10.6667 8.75033C10.4899 8.75033 10.3203 8.68448 10.1953 8.56727C10.0702 8.45005 10 8.29107 10 8.1253C10 7.95954 10.0702 7.80056 10.1953 7.68334C10.3203 7.56612 10.4899 7.50027 10.6667 7.50027C10.8435 7.50027 11.013 7.56612 11.1381 7.68334C11.2631 7.80056 11.3333 7.95954 11.3333 8.1253ZM5.33333 10.6254C5.51014 10.6254 5.67971 10.5596 5.80474 10.4424C5.92976 10.3251 6 10.1662 6 10.0004C6 9.83463 5.92976 9.67565 5.80474 9.55843C5.67971 9.44122 5.51014 9.37536 5.33333 9.37536C5.15652 9.37536 4.98695 9.44122 4.86193 9.55843C4.7369 9.67565 4.66667 9.83463 4.66667 10.0004C4.66667 10.1662 4.7369 10.3251 4.86193 10.4424C4.98695 10.5596 5.15652 10.6254 5.33333 10.6254ZM8.66667 10.0004C8.66667 10.1662 8.59643 10.3251 8.4714 10.4424C8.34638 10.5596 8.17681 10.6254 8 10.6254C7.82319 10.6254 7.65362 10.5596 7.5286 10.4424C7.40357 10.3251 7.33333 10.1662 7.33333 10.0004C7.33333 9.83463 7.40357 9.67565 7.5286 9.55843C7.65362 9.44122 7.82319 9.37536 8 9.37536C8.17681 9.37536 8.34638 9.44122 8.4714 9.55843C8.59643 9.67565 8.66667 9.83463 8.66667 10.0004ZM10.6667 10.6254C10.8435 10.6254 11.013 10.5596 11.1381 10.4424C11.2631 10.3251 11.3333 10.1662 11.3333 10.0004C11.3333 9.83463 11.2631 9.67565 11.1381 9.55843C11.013 9.44122 10.8435 9.37536 10.6667 9.37536C10.4899 9.37536 10.3203 9.44122 10.1953 9.55843C10.0702 9.67565 10 9.83463 10 10.0004C10 10.1662 10.0702 10.3251 10.1953 10.4424C10.3203 10.5596 10.4899 10.6254 10.6667 10.6254Z" fill="white"/>
</g>
</svg>
