<svg width="16" height="15" viewBox="0 0 16 15" fill="none" xmlns="http://www.w3.org/2000/svg">
<g id="Clock">
<path id="Vector" fill-rule="evenodd" clip-rule="evenodd" d="M2.66732 7.5003C2.66732 6.17416 3.22922 4.90233 4.22941 3.9646C5.22961 3.02687 6.58616 2.50006 8.00065 2.50006C9.41514 2.50006 10.7717 3.02687 11.7719 3.9646C12.7721 4.90233 13.334 6.17416 13.334 7.5003C13.334 8.82645 12.7721 10.0983 11.7719 11.036C10.7717 11.9737 9.41514 12.5005 8.00065 12.5005C6.58616 12.5005 5.22961 11.9737 4.22941 11.036C3.22922 10.0983 2.66732 8.82645 2.66732 7.5003ZM8.00065 1.25C4.31865 1.25 1.33398 4.04826 1.33398 7.5003C1.33398 10.9523 4.31865 13.7506 8.00065 13.7506C11.6827 13.7506 14.6673 10.9523 14.6673 7.5003C14.6673 4.04826 11.6827 1.25 8.00065 1.25ZM8.66732 3.75012C8.66732 3.58435 8.59708 3.42537 8.47206 3.30816C8.34703 3.19094 8.17746 3.12509 8.00065 3.12509C7.82384 3.12509 7.65427 3.19094 7.52925 3.30816C7.40422 3.42537 7.33398 3.58435 7.33398 3.75012V7.5003C7.33402 7.66606 7.40428 7.82501 7.52932 7.9422L9.52932 9.81729C9.65505 9.93115 9.82345 9.99415 9.99825 9.99272C10.173 9.9913 10.3403 9.92556 10.4639 9.80968C10.5875 9.69379 10.6576 9.53703 10.6591 9.37315C10.6606 9.20926 10.5934 9.05138 10.472 8.9335L8.66732 7.24154V3.75012Z" fill="white"/>
</g>
</svg>
