<svg width="48" height="47" viewBox="0 0 48 47" fill="none" xmlns="http://www.w3.org/2000/svg">
<g id="Desktop/Avatar/EmptyState">
<path id="unsplash:KziSJw9JLoI" d="M47 23.0383C47 35.1716 36.7415 45.0767 24 45.0767C11.2585 45.0767 1 35.1716 1 23.0383C1 10.905 11.2585 1 24 1C36.7415 1 47 10.905 47 23.0383Z" fill="#AD8847" stroke="white" stroke-width="2"/>
<g id="MJ">
<path d="M14 29.0533L15.512 16.3188H17.312L20.696 26.9453L24.026 16.3188H25.844L27.392 29.0533H25.646L24.35 18.4441L24.656 18.4787L21.524 29.0533H19.85L16.664 18.4787L16.988 18.4614L15.746 29.0533H14Z" fill="white"/>
<path d="M30.913 29.157C30.553 29.157 30.175 29.1224 29.779 29.0533C29.395 28.9727 29.077 28.8805 28.825 28.7768V27.4118C29.077 27.4579 29.359 27.504 29.671 27.55C29.983 27.5846 30.271 27.6019 30.535 27.6019C30.895 27.6019 31.201 27.55 31.453 27.4464C31.705 27.3427 31.897 27.1757 32.029 26.9453C32.173 26.7034 32.245 26.3636 32.245 25.9258V16.3188H34.045V26.1505C34.045 26.8646 33.931 27.4464 33.703 27.8956C33.487 28.3333 33.145 28.6559 32.677 28.8632C32.221 29.059 31.633 29.157 30.913 29.157Z" fill="white"/>
</g>
</g>
</svg>
