<svg width="33" height="29" viewBox="0 0 33 29" fill="none" xmlns="http://www.w3.org/2000/svg">
<g id="Social Share">
<path id="Vector" fill-rule="evenodd" clip-rule="evenodd" d="M19.2497 6.04185C18.885 6.04185 18.5353 6.16916 18.2774 6.39578C18.0196 6.6224 17.8747 6.92976 17.8747 7.25024C17.8747 7.57073 18.0196 7.87809 18.2774 8.10471C18.5353 8.33132 18.885 8.45864 19.2497 8.45864C19.6144 8.45864 19.9641 8.33132 20.222 8.10471C20.4798 7.87809 20.6247 7.57073 20.6247 7.25024C20.6247 6.92976 20.4798 6.6224 20.222 6.39578C19.9641 6.16916 19.6144 6.04185 19.2497 6.04185ZM15.1247 7.25024C15.1247 6.46431 15.4153 5.69967 15.9527 5.0715C16.4902 4.44334 17.2454 3.98569 18.1045 3.7675C18.9637 3.54931 19.8802 3.58241 20.7161 3.8618C21.552 4.14119 22.2619 4.65174 22.7389 5.31653C23.2159 5.98133 23.4342 6.76435 23.3608 7.54763C23.2874 8.33091 22.9264 9.07202 22.3321 9.6593C21.7378 10.2466 20.9424 10.6482 20.0658 10.8037C19.1892 10.9592 18.2788 10.8601 17.4718 10.5214L14.7218 12.9381C14.9803 13.4106 15.1247 13.9411 15.1247 14.5006C15.1247 15.0601 14.9803 15.5906 14.7218 16.063L17.4718 18.4798C18.3499 18.1112 19.348 18.0273 20.2896 18.2429C21.2313 18.4585 22.0559 18.9597 22.6177 19.6579C23.1796 20.3562 23.4424 21.2065 23.3599 22.0586C23.2773 22.9107 22.8546 23.7097 22.1666 24.3144C21.4785 24.9191 20.5693 25.2905 19.5997 25.3631C18.6302 25.4357 17.6626 25.2046 16.8681 24.7109C16.0736 24.2171 15.5033 23.4924 15.258 22.6649C15.0127 21.8373 15.1082 20.9602 15.5276 20.1885L12.7776 17.7717C12.1488 18.0354 11.4543 18.1549 10.7587 18.1189C10.0632 18.083 9.38943 17.8928 8.80016 17.5661C8.2109 17.2394 7.72539 16.7869 7.38891 16.2507C7.05244 15.7146 6.87598 15.1123 6.87598 14.5C6.87598 13.8877 7.05244 13.2854 7.38891 12.7492C7.72539 12.2131 8.2109 11.7606 8.80016 11.4339C9.38943 11.1072 10.0632 10.917 10.7587 10.8811C11.4543 10.8451 12.1488 10.9646 12.7776 11.2283L15.5276 8.8127C15.2619 8.32494 15.1243 7.79099 15.1247 7.25024ZM10.9997 13.2922C10.635 13.2922 10.2853 13.4195 10.0274 13.6461C9.76956 13.8728 9.6247 14.1801 9.6247 14.5006C9.6247 14.8211 9.76956 15.1284 10.0274 15.3551C10.2853 15.5817 10.635 15.709 10.9997 15.709C11.3644 15.709 11.7141 15.5817 11.972 15.3551C12.2298 15.1284 12.3747 14.8211 12.3747 14.5006C12.3747 14.1801 12.2298 13.8728 11.972 13.6461C11.7141 13.4195 11.3644 13.2922 10.9997 13.2922ZM19.2497 20.5426C19.0691 20.5422 18.8902 20.5733 18.7233 20.6341C18.5564 20.6948 18.405 20.7841 18.2776 20.8966C18.0527 21.0943 17.9127 21.3545 17.8816 21.6327C17.8505 21.9109 17.9301 22.19 18.1068 22.4225C18.2836 22.6549 18.5466 22.8263 18.8511 22.9074C19.1555 22.9885 19.4825 22.9743 19.7764 22.8673C20.0703 22.7602 20.3128 22.567 20.4628 22.3204C20.6127 22.0738 20.6606 21.7892 20.5985 21.515C20.5364 21.2408 20.368 20.994 20.1221 20.8167C19.8761 20.6394 19.5678 20.5425 19.2497 20.5426Z" fill="black" fill-opacity="0.8"/>
</g>
</svg>
