<svg width="17" height="16" viewBox="0 0 17 16" fill="none" xmlns="http://www.w3.org/2000/svg">
<g id="Square Chat Bubbles">
<path id="Vector" fill-rule="evenodd" clip-rule="evenodd" d="M4.37107 11.9994H2.83398C2.2704 11.9994 1.7299 11.7887 1.33138 11.4136C0.932868 11.0386 0.708984 10.5299 0.708984 9.99946V2.66642C0.708984 2.13601 0.932868 1.62732 1.33138 1.25227C1.7299 0.877209 2.2704 0.666504 2.83398 0.666504H12.7507C13.3142 0.666504 13.8547 0.877209 14.2533 1.25227C14.6518 1.62732 14.8757 2.13601 14.8757 2.66642V4.66634C15.4392 4.66634 15.9797 4.87705 16.3783 5.2521C16.7768 5.62716 17.0007 6.13585 17.0007 6.66626V11.3327C17.0007 11.8631 16.7768 12.3718 16.3783 12.7469C15.9797 13.1219 15.4392 13.3327 14.8757 13.3327H13.4264L11.159 15.7719C11.0925 15.8435 11.0105 15.9009 10.9186 15.9402C10.8266 15.9795 10.7267 15.9999 10.6257 15.9999C10.5246 15.9999 10.4247 15.9795 10.3327 15.9402C10.2408 15.9009 10.1588 15.8435 10.0923 15.7719L7.82561 13.3327H6.37565C5.93605 13.3328 5.50722 13.2046 5.14821 12.9658C4.78921 12.7271 4.5177 12.3894 4.37107 11.9994ZM13.459 4.66634V2.66642C13.459 2.48962 13.3844 2.32006 13.2515 2.19504C13.1187 2.07002 12.9385 1.99978 12.7507 1.99978H2.83398C2.64612 1.99978 2.46596 2.07002 2.33312 2.19504C2.20028 2.32006 2.12565 2.48962 2.12565 2.66642V9.99946C2.12565 10.1763 2.20028 10.3458 2.33312 10.4708C2.46596 10.5959 2.64612 10.6661 2.83398 10.6661H4.25065V6.66626C4.25065 6.13585 4.47453 5.62716 4.87305 5.2521C5.27156 4.87705 5.81207 4.66634 6.37565 4.66634H13.459ZM12.5714 12.2267L10.6257 14.3206L8.67986 12.2274C8.61338 12.1558 8.53138 12.0984 8.43939 12.059C8.34739 12.0197 8.24752 11.9994 8.14648 11.9994H6.37565C6.18779 11.9994 6.00762 11.9291 5.87478 11.8041C5.74195 11.6791 5.66732 11.5095 5.66732 11.3327V6.66626C5.66732 6.48946 5.74195 6.31989 5.87478 6.19487C6.00762 6.06985 6.18779 5.99962 6.37565 5.99962H14.8757C15.0635 5.99962 15.2437 6.06985 15.3765 6.19487C15.5094 6.31989 15.584 6.48946 15.584 6.66626V11.3327C15.584 11.5095 15.5094 11.6791 15.3765 11.8041C15.2437 11.9291 15.0635 11.9994 14.8757 11.9994H13.1048C13.0038 11.9993 12.904 12.0195 12.812 12.0587C12.72 12.0979 12.638 12.1552 12.5714 12.2267Z" fill="white"/>
</g>
</svg>
