<svg width="92" height="92" viewBox="0 0 92 92" fill="none" xmlns="http://www.w3.org/2000/svg">
<path id="Vector" fill-rule="evenodd" clip-rule="evenodd" d="M8.36364 46C8.36364 41.0575 9.33713 36.1634 11.2285 31.5972C13.1199 27.0309 15.8922 22.8819 19.3871 19.3871C22.8819 15.8922 27.0309 13.1199 31.5972 11.2285C36.1634 9.33713 41.0575 8.36364 46 8.36364C50.9425 8.36364 55.8366 9.33713 60.4028 11.2285C64.9691 13.1199 69.1181 15.8922 72.6129 19.3871C76.1078 22.8819 78.8801 27.0309 80.7715 31.5972C82.6629 36.1634 83.6364 41.0575 83.6364 46C83.6364 55.9818 79.6711 65.5547 72.6129 72.6129C65.5547 79.6711 55.9818 83.6364 46 83.6364C36.0182 83.6364 26.4453 79.6711 19.3871 72.6129C12.3289 65.5547 8.36364 55.9818 8.36364 46ZM46 0C20.5955 0 0 20.5955 0 46C0 71.4045 20.5955 92 46 92C71.4045 92 92 71.4045 92 46C92 20.5955 71.4045 0 46 0ZM66.0727 31.7818C66.4022 31.3425 66.642 30.8426 66.7783 30.3106C66.9145 29.7786 66.9447 29.225 66.8671 28.6813C66.7894 28.1377 66.6054 27.6147 66.3256 27.1421C66.0458 26.6696 65.6757 26.2568 65.2364 25.9273C64.797 25.5978 64.2971 25.358 63.7651 25.2217C63.2331 25.0854 62.6795 25.0553 62.1359 25.1329C61.5922 25.2106 61.0692 25.3946 60.5967 25.6744C60.1241 25.9542 59.7113 26.3243 59.3818 26.7636L37.1847 56.3625L28.0475 47.2253C27.2588 46.4635 26.2024 46.042 25.106 46.0515C24.0095 46.0611 22.9606 46.5009 22.1853 47.2762C21.41 48.0516 20.9702 49.1004 20.9606 50.1969C20.9511 51.2933 21.3726 52.3497 22.1344 53.1384L34.6798 65.6838C35.1034 66.1074 35.6131 66.4351 36.1744 66.6445C36.7356 66.854 37.3353 66.9405 37.9329 66.8981C38.5305 66.8556 39.112 66.6853 39.638 66.3986C40.164 66.1119 40.6223 65.7156 40.9818 65.2364L66.0727 31.7818Z" fill="#be9e44"/>
</svg>
