<svg width="28" height="28" viewBox="0 0 28 28" fill="none" xmlns="http://www.w3.org/2000/svg">
<g id="Heart">
<g id="Vector">
<path fill-rule="evenodd" clip-rule="evenodd" d="M3.53792 7.11426C4.68307 5.96946 6.23602 5.32634 7.85526 5.32634C9.4745 5.32634 11.0275 5.96946 12.1726 7.11426L13.9618 8.90196L15.7511 7.11426C16.3144 6.53102 16.9882 6.06581 17.7332 5.74577C18.4782 5.42573 19.2795 5.25728 20.0904 5.25023C20.9012 5.24318 21.7053 5.39769 22.4558 5.70474C23.2063 6.01178 23.8881 6.46521 24.4614 7.03857C25.0348 7.61193 25.4882 8.29374 25.7953 9.04422C26.1023 9.79469 26.2568 10.5988 26.2498 11.4096C26.2427 12.2205 26.0743 13.0218 25.7542 13.7668C25.4342 14.5118 24.969 15.1856 24.3857 15.7489L13.9618 26.1744L3.53792 15.7489C2.39312 14.6038 1.75 13.0508 1.75 11.4316C1.75 9.81236 2.39312 8.25941 3.53792 7.11426Z" fill="#FF5F5F"/>
<path d="M11.8192 7.46797L11.8191 7.46787C10.7677 6.4168 9.34192 5.82634 7.85526 5.82634C6.36865 5.82634 4.9429 6.41676 3.89153 7.46776C3.89149 7.4678 3.89146 7.46783 3.89142 7.46787M11.8192 7.46797L3.89142 7.46787M11.8192 7.46797L13.6084 9.25566L13.9618 9.60877L14.3152 9.25566L16.1045 7.46797L16.1045 7.46802L16.1107 7.46162C16.6279 6.92613 17.2465 6.49901 17.9306 6.20518C18.6146 5.91134 19.3503 5.75668 20.0947 5.75021C20.8392 5.74374 21.5774 5.8856 22.2664 6.1675C22.9555 6.4494 23.5815 6.86571 24.1079 7.39213C24.6343 7.91854 25.0506 8.54452 25.3325 9.23355C25.6144 9.92258 25.7563 10.6608 25.7498 11.4053C25.7433 12.1497 25.5887 12.8854 25.2948 13.5694C25.001 14.2535 24.5739 14.8721 24.0384 15.3893L24.0383 15.3892L24.0322 15.3954L13.9618 25.4672L3.89153 15.3954M11.8192 7.46797L3.89153 15.3954M3.89142 7.46787C2.84042 8.51925 2.25 9.945 2.25 11.4316C2.25 12.9183 2.84046 14.3441 3.89153 15.3954M3.89142 7.46787L3.89153 15.3954" stroke="black" stroke-opacity="0.22"/>
</g>
</g>
</svg>
