<svg width="10" height="10" viewBox="0 0 10 10" fill="none" xmlns="http://www.w3.org/2000/svg">
<path fill-rule="evenodd" clip-rule="evenodd" d="M1.25033 4.99999C1.25033 4.50753 1.34732 4.0199 1.53578 3.56493C1.72423 3.10996 2.00046 2.69656 2.34867 2.34834C2.69689 2.00012 3.11029 1.7239 3.56526 1.53544C4.02023 1.34699 4.50787 1.24999 5.00033 1.24999C5.49278 1.24999 5.98042 1.34699 6.43539 1.53544C6.89036 1.7239 7.30376 2.00012 7.65198 2.34834C8.00019 2.69656 8.27642 3.10996 8.46487 3.56493C8.65333 4.0199 8.75033 4.50753 8.75032 4.99999C8.75032 5.99455 8.35524 6.94838 7.65198 7.65164C6.94871 8.3549 5.99489 8.74999 5.00033 8.74999C4.00576 8.74999 3.05194 8.3549 2.34867 7.65164C1.64541 6.94838 1.25033 5.99455 1.25033 4.99999ZM5.00033 0.416656C2.46908 0.416656 0.416992 2.46874 0.416992 4.99999C0.416992 7.53124 2.46908 9.58332 5.00033 9.58332C7.53157 9.58332 9.58366 7.53124 9.58366 4.99999C9.58366 2.46874 7.53157 0.416656 5.00033 0.416656ZM3.82199 3.23207C3.74381 3.15389 3.63777 3.10997 3.5272 3.10997C3.41663 3.10997 3.31059 3.15389 3.23241 3.23207C3.15422 3.31026 3.1103 3.4163 3.1103 3.52686C3.1103 3.58161 3.12109 3.63582 3.14204 3.6864C3.16299 3.73698 3.1937 3.78294 3.23241 3.82166L4.41116 4.99999L3.23241 6.17832C3.15422 6.25651 3.1103 6.36255 3.1103 6.47311C3.1103 6.58368 3.15422 6.68972 3.23241 6.76791C3.31059 6.84609 3.41663 6.89001 3.5272 6.89001C3.63777 6.89001 3.74381 6.84609 3.82199 6.76791L5.00033 5.58916L6.17908 6.76791C6.21779 6.80659 6.26374 6.83727 6.31431 6.8582C6.36488 6.87912 6.41908 6.88988 6.47381 6.88986C6.52853 6.88984 6.58272 6.87905 6.63328 6.85808C6.68383 6.83712 6.72976 6.80641 6.76845 6.7677C6.80714 6.72898 6.83782 6.68303 6.85874 6.63246C6.87967 6.58189 6.89043 6.5277 6.89041 6.47297C6.89039 6.41824 6.87959 6.36405 6.85863 6.31349C6.83767 6.26294 6.80695 6.21701 6.76824 6.17832L5.58949 4.99999L6.76824 3.82166C6.84643 3.74353 6.89037 3.63754 6.89041 3.52701C6.89045 3.41648 6.84658 3.31046 6.76845 3.23228C6.69032 3.1541 6.58433 3.11015 6.47381 3.11011C6.36328 3.11007 6.25726 3.15394 6.17908 3.23207L5.00033 4.41082L3.82199 3.23207Z" fill="white"/>
</svg>
