<svg width="14" height="13" viewBox="0 0 14 13" fill="none" xmlns="http://www.w3.org/2000/svg">
<path fill-rule="evenodd" clip-rule="evenodd" d="M9.33365 3.25016C8.86952 3.25016 8.4244 3.42137 8.09622 3.72613C7.76803 4.03089 7.58365 4.44424 7.58365 4.87524C7.58365 5.30623 7.76803 5.71958 8.09622 6.02434C8.4244 6.3291 8.86952 6.50032 9.33365 6.50032C9.79778 6.50032 10.2429 6.3291 10.5711 6.02434C10.8993 5.71958 11.0837 5.30623 11.0837 4.87524C11.0837 4.44424 10.8993 4.03089 10.5711 3.72613C10.2429 3.42137 9.79778 3.25016 9.33365 3.25016ZM6.41699 4.87524C6.41699 4.43373 6.53322 3.99893 6.75556 3.60867C6.97789 3.21842 7.29959 2.88456 7.69264 2.63615C8.08569 2.38775 8.53818 2.23234 9.0107 2.18345C9.48321 2.13456 9.96144 2.19368 10.4037 2.35566C10.846 2.51764 11.239 2.77757 11.5483 3.11281C11.8577 3.44805 12.0741 3.84845 12.1788 4.27912C12.2834 4.7098 12.2731 5.1577 12.1487 5.58383C12.0244 6.00995 11.7897 6.40138 11.4652 6.72404C12.4548 7.02298 13.3103 7.61712 13.8988 8.41412C13.9809 8.53284 14.0099 8.67662 13.9796 8.81487C13.9492 8.95312 13.862 9.07494 13.7365 9.1544C13.611 9.23386 13.457 9.2647 13.3073 9.24036C13.1577 9.21602 13.0241 9.13842 12.9352 9.02406C12.3658 8.24836 11.3275 7.5837 9.91699 7.5837C7.68049 7.5837 6.41699 9.24887 6.41699 10.2922C6.41699 10.4358 6.35553 10.5736 6.24613 10.6752C6.13674 10.7768 5.98836 10.8339 5.83365 10.8339C5.67894 10.8339 5.53057 10.7768 5.42117 10.6752C5.31178 10.5736 5.25032 10.4358 5.25032 10.2922C5.25032 9.91732 5.34249 9.51755 5.51865 9.12374C5.47285 9.09618 5.43142 9.06282 5.39557 9.02461C4.91665 8.51866 4.17349 8.12539 3.20865 8.12539C2.24382 8.12539 1.50065 8.51866 1.02174 9.02461C0.918036 9.12689 0.775598 9.18777 0.624481 9.19439C0.473364 9.201 0.32539 9.15284 0.211785 9.06007C0.0981804 8.9673 0.0278326 8.83717 0.0155872 8.69714C0.00334185 8.55712 0.0501569 8.41815 0.146153 8.30957C0.490621 7.94552 0.908325 7.64742 1.37582 7.43203C1.00232 7.09353 0.745946 6.65933 0.639459 6.18488C0.532971 5.71043 0.581199 5.21728 0.777981 4.7684C0.974764 4.31953 1.31117 3.93532 1.74423 3.66484C2.17728 3.39436 2.68734 3.24989 3.20924 3.24989C3.73113 3.24989 4.24119 3.39436 4.67425 3.66484C5.1073 3.93532 5.44371 4.31953 5.64049 4.7684C5.83727 5.21728 5.8855 5.71043 5.77901 6.18488C5.67253 6.65933 5.41616 7.09353 5.04265 7.43203C5.44735 7.61854 5.81517 7.86725 6.13057 8.16765C6.52676 7.7047 7.01963 7.3209 7.57957 7.0393C7.21821 6.78713 6.92503 6.4603 6.72324 6.08468C6.52145 5.70907 6.4166 5.29499 6.41699 4.87524V4.87524ZM1.75032 5.68778C1.75032 5.32861 1.90396 4.98416 2.17746 4.73019C2.45095 4.47622 2.82188 4.33354 3.20865 4.33354C3.59543 4.33354 3.96636 4.47622 4.23985 4.73019C4.51334 4.98416 4.66699 5.32861 4.66699 5.68778C4.66699 6.04694 4.51334 6.3914 4.23985 6.64536C3.96636 6.89933 3.59543 7.04201 3.20865 7.04201C2.82188 7.04201 2.45095 6.89933 2.17746 6.64536C1.90396 6.3914 1.75032 6.04694 1.75032 5.68778Z" fill="white"/>
</svg>
