<svg width="12" height="12" viewBox="0 0 12 12" fill="none" xmlns="http://www.w3.org/2000/svg">
<path fill-rule="evenodd" clip-rule="evenodd" d="M3 1.43988C2.60218 1.43988 2.22064 1.59158 1.93934 1.86162C1.65804 2.13165 1.5 2.49789 1.5 2.87978V8.63936C1.5 9.02124 1.65804 9.38748 1.93934 9.65752C2.22064 9.92755 2.60218 10.0793 3 10.0793H8.5C8.63261 10.0793 8.75979 10.0287 8.85355 9.93867C8.94732 9.84866 9 9.72658 9 9.59929C9 9.47199 8.94732 9.34991 8.85355 9.2599C8.75979 9.16989 8.63261 9.11932 8.5 9.11932H3C2.86739 9.11932 2.74021 9.06876 2.64645 8.97874C2.55268 8.88873 2.5 8.76665 2.5 8.63936V2.87978C2.5 2.75248 2.55268 2.6304 2.64645 2.54039C2.74021 2.45038 2.86739 2.39981 3 2.39981H8.5C8.63261 2.39981 8.75979 2.34924 8.85355 2.25923C8.94732 2.16922 9 2.04714 9 1.91985C9 1.79255 8.94732 1.67047 8.85355 1.58046C8.75979 1.49045 8.63261 1.43988 8.5 1.43988H3ZM7.8535 3.50037C7.80738 3.45453 7.7522 3.41796 7.6912 3.39281C7.6302 3.36766 7.56459 3.35441 7.4982 3.35386C7.43181 3.35331 7.36597 3.36545 7.30452 3.38958C7.24307 3.41372 7.18725 3.44936 7.1403 3.49442C7.09336 3.53949 7.05623 3.59308 7.03109 3.65206C7.00595 3.71105 6.9933 3.77425 6.99387 3.83798C6.99445 3.90171 7.00824 3.96469 7.03445 4.02325C7.06065 4.0818 7.09875 4.13477 7.1465 4.17904L8.293 5.2796H4C3.86739 5.2796 3.74021 5.33017 3.64645 5.42018C3.55268 5.51019 3.5 5.63227 3.5 5.75957C3.5 5.88686 3.55268 6.00894 3.64645 6.09895C3.74021 6.18896 3.86739 6.23953 4 6.23953H8.293L7.1465 7.34009C7.05542 7.43061 7.00502 7.55185 7.00616 7.6777C7.0073 7.80355 7.05989 7.92393 7.15259 8.01292C7.24529 8.10191 7.3707 8.15238 7.5018 8.15348C7.6329 8.15457 7.7592 8.10619 7.8535 8.01876L9.8535 6.0989C9.94724 6.0089 9.99989 5.88684 9.99989 5.75957C9.99989 5.6323 9.94724 5.51024 9.8535 5.42023L7.8535 3.50037V3.50037Z" fill="white"/>
</svg>
