<svg width="16" height="15" viewBox="0 0 16 15" fill="none" xmlns="http://www.w3.org/2000/svg">
<path fill-rule="evenodd" clip-rule="evenodd" d="M5.33333 5.62527C5.33333 4.9622 5.61428 4.32628 6.11438 3.85742C6.61448 3.38856 7.29276 3.12515 8 3.12515C8.70724 3.12515 9.38552 3.38856 9.88562 3.85742C10.3857 4.32628 10.6667 4.9622 10.6667 5.62527C10.6667 6.28835 10.3857 6.92426 9.88562 7.39313C9.38552 7.86199 8.70724 8.1254 8 8.1254C7.29276 8.1254 6.61448 7.86199 6.11438 7.39313C5.61428 6.92426 5.33333 6.28835 5.33333 5.62527V5.62527ZM10.5493 8.51479C11.1837 8.0228 11.6406 7.35929 11.8579 6.6148C12.0751 5.87031 12.0421 5.08111 11.7632 4.35489C11.4843 3.62867 10.9732 3.00081 10.2997 2.557C9.62614 2.11318 8.82293 1.87502 7.99967 1.87502C7.1764 1.87502 6.37319 2.11318 5.69964 2.557C5.02609 3.00081 4.515 3.62867 4.23614 4.35489C3.95727 5.08111 3.9242 5.87031 4.14144 6.6148C4.35869 7.35929 4.81566 8.0228 5.45 8.51479C3.324 9.2167 2 10.7799 2 12.5006C2 12.6664 2.07024 12.8254 2.19526 12.9426C2.32029 13.0598 2.48986 13.1256 2.66667 13.1256C2.84348 13.1256 3.01305 13.0598 3.13807 12.9426C3.2631 12.8254 3.33333 12.6664 3.33333 12.5006C3.33333 11.0818 4.90333 9.37546 8 9.37546C11.0967 9.37546 12.6667 11.0818 12.6667 12.5006C12.6667 12.6664 12.7369 12.8254 12.8619 12.9426C12.987 13.0598 13.1565 13.1256 13.3333 13.1256C13.5101 13.1256 13.6797 13.0598 13.8047 12.9426C13.9298 12.8254 14 12.6664 14 12.5006C14 10.7799 12.6773 9.2167 10.5493 8.51479Z" fill="white"/>
</svg>
