<svg width="50" height="51" viewBox="0 0 50 51" fill="none" xmlns="http://www.w3.org/2000/svg">
<g clip-path="url(#clip0_232_2148)">
<g filter="url(#filter0_dd_232_2148)">
<circle cx="18.5" cy="18.7021" r="14.5" fill="white"/>
</g>
<path d="M16.8851 14.3015L16.8851 14.3014C16.1881 13.6046 15.243 13.2132 14.2575 13.2132C13.2721 13.2132 12.327 13.6046 11.6301 14.3013C11.6301 14.3013 11.63 14.3013 11.63 14.3014M16.8851 14.3015L11.63 14.3014M16.8851 14.3015L18.1206 15.5358L18.474 15.8889L18.8274 15.5358L20.0628 14.3015L20.0628 14.3015L20.069 14.2951C20.4119 13.9401 20.8219 13.657 21.2754 13.4622C21.7288 13.2675 22.2165 13.165 22.7099 13.1607C23.2034 13.1564 23.6928 13.2504 24.1495 13.4373C24.6062 13.6241 25.0212 13.9001 25.3701 14.249L25.7237 13.8955L25.3701 14.249C25.7191 14.598 25.995 15.0129 26.1819 15.4697C26.3688 15.9264 26.4628 16.4158 26.4585 16.9093C26.4542 17.4027 26.3517 17.8904 26.1569 18.3438C25.9622 18.7972 25.679 19.2073 25.3241 19.5502L25.324 19.5501L25.3178 19.5563L18.474 26.4012L11.6301 19.5563C11.6301 19.5563 11.6301 19.5563 11.6301 19.5563C10.9334 18.8593 10.542 17.9142 10.542 16.9288C10.542 15.9434 10.9334 14.9983 11.63 14.3014M16.8851 14.3015L11.63 14.3014" stroke="#2D2D2D"/>
</g>
<defs>
<filter id="filter0_dd_232_2148" x="-2" y="2.20215" width="41" height="41" filterUnits="userSpaceOnUse" color-interpolation-filters="sRGB">
<feFlood flood-opacity="0" result="BackgroundImageFix"/>
<feColorMatrix in="SourceAlpha" type="matrix" values="0 0 0 0 0 0 0 0 0 0 0 0 0 0 0 0 0 0 127 0" result="hardAlpha"/>
<feMorphology radius="2" operator="erode" in="SourceAlpha" result="effect1_dropShadow_232_2148"/>
<feOffset dy="2"/>
<feGaussianBlur stdDeviation="2"/>
<feColorMatrix type="matrix" values="0 0 0 0 0.0627451 0 0 0 0 0.0941176 0 0 0 0 0.156863 0 0 0 0.06 0"/>
<feBlend mode="normal" in2="BackgroundImageFix" result="effect1_dropShadow_232_2148"/>
<feColorMatrix in="SourceAlpha" type="matrix" values="0 0 0 0 0 0 0 0 0 0 0 0 0 0 0 0 0 0 127 0" result="hardAlpha"/>
<feMorphology radius="2" operator="erode" in="SourceAlpha" result="effect2_dropShadow_232_2148"/>
<feOffset dy="4"/>
<feGaussianBlur stdDeviation="4"/>
<feColorMatrix type="matrix" values="0 0 0 0 0.0627451 0 0 0 0 0.0941176 0 0 0 0 0.156863 0 0 0 0.1 0"/>
<feBlend mode="normal" in2="effect1_dropShadow_232_2148" result="effect2_dropShadow_232_2148"/>
<feBlend mode="normal" in="SourceGraphic" in2="effect2_dropShadow_232_2148" result="shape"/>
</filter>
<clipPath id="clip0_232_2148">
<rect width="29" height="29" fill="white" transform="translate(4 4.20215)"/>
</clipPath>
</defs>
</svg>
