<svg width="55" height="56" viewBox="0 0 55 56" fill="none" xmlns="http://www.w3.org/2000/svg">
<g clip-path="url(#clip0_232_2152)">
<g filter="url(#filter0_dd_232_2152)">
<circle cx="21.5" cy="21.7021" r="14.5" fill="white"/>
</g>
<path fill-rule="evenodd" clip-rule="evenodd" d="M14.2765 16.9478C15.0672 16.1573 16.1395 15.7132 17.2575 15.7132C18.3756 15.7132 19.4479 16.1573 20.2386 16.9478L21.474 18.1821L22.7094 16.9478C23.0983 16.545 23.5636 16.2238 24.078 16.0028C24.5924 15.7819 25.1457 15.6655 25.7056 15.6607C26.2654 15.6558 26.8207 15.7625 27.3388 15.9745C27.857 16.1865 28.3278 16.4996 28.7237 16.8955C29.1196 17.2914 29.4327 17.7622 29.6447 18.2803C29.8567 18.7985 29.9634 19.3537 29.9585 19.9136C29.9536 20.4735 29.8373 21.0267 29.6163 21.5412C29.3954 22.0556 29.0741 22.5208 28.6714 22.9098L21.474 30.1083L14.2765 22.9098C13.486 22.1191 13.042 21.0468 13.042 19.9288C13.042 18.8107 13.486 17.7385 14.2765 16.9478Z" fill="#FF4848"/>
</g>
<g clip-path="url(#clip1_232_2152)">
<g filter="url(#filter1_dd_232_2152)">
<circle cx="21.5" cy="21.7021" r="14.5" fill="white"/>
</g>
<path fill-rule="evenodd" clip-rule="evenodd" d="M14.2765 16.9478C15.0672 16.1573 16.1395 15.7132 17.2575 15.7132C18.3756 15.7132 19.4479 16.1573 20.2386 16.9478L21.474 18.1821L22.7094 16.9478C23.0983 16.545 23.5636 16.2238 24.078 16.0028C24.5924 15.7819 25.1457 15.6655 25.7056 15.6607C26.2654 15.6558 26.8207 15.7625 27.3388 15.9745C27.857 16.1865 28.3278 16.4996 28.7237 16.8955C29.1196 17.2914 29.4327 17.7622 29.6447 18.2803C29.8567 18.7985 29.9634 19.3537 29.9585 19.9136C29.9536 20.4735 29.8373 21.0267 29.6163 21.5412C29.3954 22.0556 29.0741 22.5208 28.6714 22.9098L21.474 30.1083L14.2765 22.9098C13.486 22.1191 13.042 21.0468 13.042 19.9288C13.042 18.8107 13.486 17.7385 14.2765 16.9478Z" fill="#FF4848"/>
</g>
<defs>
<filter id="filter0_dd_232_2152" x="1" y="5.20215" width="41" height="41" filterUnits="userSpaceOnUse" color-interpolation-filters="sRGB">
<feFlood flood-opacity="0" result="BackgroundImageFix"/>
<feColorMatrix in="SourceAlpha" type="matrix" values="0 0 0 0 0 0 0 0 0 0 0 0 0 0 0 0 0 0 127 0" result="hardAlpha"/>
<feMorphology radius="2" operator="erode" in="SourceAlpha" result="effect1_dropShadow_232_2152"/>
<feOffset dy="2"/>
<feGaussianBlur stdDeviation="2"/>
<feColorMatrix type="matrix" values="0 0 0 0 0.0627451 0 0 0 0 0.0941176 0 0 0 0 0.156863 0 0 0 0.06 0"/>
<feBlend mode="normal" in2="BackgroundImageFix" result="effect1_dropShadow_232_2152"/>
<feColorMatrix in="SourceAlpha" type="matrix" values="0 0 0 0 0 0 0 0 0 0 0 0 0 0 0 0 0 0 127 0" result="hardAlpha"/>
<feMorphology radius="2" operator="erode" in="SourceAlpha" result="effect2_dropShadow_232_2152"/>
<feOffset dy="4"/>
<feGaussianBlur stdDeviation="4"/>
<feColorMatrix type="matrix" values="0 0 0 0 0.0627451 0 0 0 0 0.0941176 0 0 0 0 0.156863 0 0 0 0.1 0"/>
<feBlend mode="normal" in2="effect1_dropShadow_232_2152" result="effect2_dropShadow_232_2152"/>
<feBlend mode="normal" in="SourceGraphic" in2="effect2_dropShadow_232_2152" result="shape"/>
</filter>
<filter id="filter1_dd_232_2152" x="1" y="5.20215" width="41" height="41" filterUnits="userSpaceOnUse" color-interpolation-filters="sRGB">
<feFlood flood-opacity="0" result="BackgroundImageFix"/>
<feColorMatrix in="SourceAlpha" type="matrix" values="0 0 0 0 0 0 0 0 0 0 0 0 0 0 0 0 0 0 127 0" result="hardAlpha"/>
<feMorphology radius="2" operator="erode" in="SourceAlpha" result="effect1_dropShadow_232_2152"/>
<feOffset dy="2"/>
<feGaussianBlur stdDeviation="2"/>
<feColorMatrix type="matrix" values="0 0 0 0 0.0627451 0 0 0 0 0.0941176 0 0 0 0 0.156863 0 0 0 0.06 0"/>
<feBlend mode="normal" in2="BackgroundImageFix" result="effect1_dropShadow_232_2152"/>
<feColorMatrix in="SourceAlpha" type="matrix" values="0 0 0 0 0 0 0 0 0 0 0 0 0 0 0 0 0 0 127 0" result="hardAlpha"/>
<feMorphology radius="2" operator="erode" in="SourceAlpha" result="effect2_dropShadow_232_2152"/>
<feOffset dy="4"/>
<feGaussianBlur stdDeviation="4"/>
<feColorMatrix type="matrix" values="0 0 0 0 0.0627451 0 0 0 0 0.0941176 0 0 0 0 0.156863 0 0 0 0.1 0"/>
<feBlend mode="normal" in2="effect1_dropShadow_232_2152" result="effect2_dropShadow_232_2152"/>
<feBlend mode="normal" in="SourceGraphic" in2="effect2_dropShadow_232_2152" result="shape"/>
</filter>
<clipPath id="clip0_232_2152">
<rect width="29" height="29" fill="white" transform="translate(7 7.20215)"/>
</clipPath>
<clipPath id="clip1_232_2152">
<rect width="29" height="29" fill="white" transform="translate(7 7.20215)"/>
</clipPath>
</defs>
</svg>
