<svg width="98" height="27" viewBox="0 0 98 27" fill="none" xmlns="http://www.w3.org/2000/svg">
<path d="M11 5.25L13.4474 10.829L19.25 11.5524L14.96 15.7239L16.0988 21.75L11 18.749L5.90122 21.75L7.04 15.7239L2.75 11.5524L8.55259 10.829L11 5.25Z" fill="#EA2088"/>
<path d="M30 5.25L32.4474 10.829L38.25 11.5524L33.96 15.7239L35.0988 21.75L30 18.749L24.9012 21.75L26.04 15.7239L21.75 11.5524L27.5526 10.829L30 5.25Z" fill="#EA2088"/>
<path d="M49 5.25L51.4474 10.829L57.25 11.5524L52.96 15.7239L54.0988 21.75L49 18.749L43.9012 21.75L45.04 15.7239L40.75 11.5524L46.5526 10.829L49 5.25Z" fill="#EA2088"/>
<path d="M68 5.25L65.5526 10.829L59.75 11.5524L64.04 15.7239L62.9012 21.75L68 18.749V5.25Z" fill="#EA2088"/>
<path d="M68 18.749L73.0988 21.75L71.96 15.7239L76.25 11.5524L70.4474 10.829L68 5.25V18.749Z" fill="#EA2088"/>
<path d="M87 5.25L89.4474 10.829L95.25 11.5524L90.96 15.7239L92.0988 21.75L87 18.749L81.9012 21.75L83.04 15.7239L78.75 11.5524L84.5526 10.829L87 5.25Z" fill="#DDE2E4"/>
</svg>
