<svg width="16" height="15" viewBox="0 0 16 15" fill="none" xmlns="http://www.w3.org/2000/svg">
<path fill-rule="evenodd" clip-rule="evenodd" d="M2.66667 1.87512C2.84348 1.87512 3.01305 1.94097 3.13807 2.05819C3.2631 2.17541 3.33333 2.33438 3.33333 2.50015V3.12518H4.66667V2.50015C4.66667 2.33438 4.7369 2.17541 4.86193 2.05819C4.98695 1.94097 5.15652 1.87512 5.33333 1.87512C5.51014 1.87512 5.67971 1.94097 5.80474 2.05819C5.92976 2.17541 6 2.33438 6 2.50015V3.12518H7.33333V2.50015C7.33333 2.33438 7.40357 2.17541 7.5286 2.05819C7.65362 1.94097 7.82319 1.87512 8 1.87512C8.17681 1.87512 8.34638 1.94097 8.4714 2.05819C8.59643 2.17541 8.66667 2.33438 8.66667 2.50015V3.12518H10V2.50015C10 2.33438 10.0702 2.17541 10.1953 2.05819C10.3203 1.94097 10.4899 1.87512 10.6667 1.87512C10.8435 1.87512 11.013 1.94097 11.1381 2.05819C11.2631 2.17541 11.3333 2.33438 11.3333 2.50015V3.12518H12.6667V2.50015C12.6667 2.33438 12.7369 2.17541 12.8619 2.05819C12.987 1.94097 13.1565 1.87512 13.3333 1.87512C13.5101 1.87512 13.6797 1.94097 13.8047 2.05819C13.9298 2.17541 14 2.33438 14 2.50015V11.2506C14 11.7479 13.7893 12.2248 13.4142 12.5765C13.0391 12.9281 12.5304 13.1257 12 13.1257H4C3.46957 13.1257 2.96086 12.9281 2.58579 12.5765C2.21071 12.2248 2 11.7479 2 11.2506V2.50015C2 2.33438 2.07024 2.17541 2.19526 2.05819C2.32029 1.94097 2.48986 1.87512 2.66667 1.87512V1.87512ZM12.6667 4.37524H3.33333V11.2506C3.33333 11.4163 3.40357 11.5753 3.5286 11.6925C3.65362 11.8098 3.82319 11.8756 4 11.8756H12C12.1768 11.8756 12.3464 11.8098 12.4714 11.6925C12.5964 11.5753 12.6667 11.4163 12.6667 11.2506V4.37524ZM8.66667 6.25033C8.66667 6.4161 8.59643 6.57508 8.4714 6.6923C8.34638 6.80951 8.17681 6.87537 8 6.87537C7.82319 6.87537 7.65362 6.80951 7.5286 6.6923C7.40357 6.57508 7.33333 6.4161 7.33333 6.25033C7.33333 6.08457 7.40357 5.92559 7.5286 5.80837C7.65362 5.69116 7.82319 5.6253 8 5.6253C8.17681 5.6253 8.34638 5.69116 8.4714 5.80837C8.59643 5.92559 8.66667 6.08457 8.66667 6.25033V6.25033ZM10.6667 6.87537C10.8435 6.87537 11.013 6.80951 11.1381 6.6923C11.2631 6.57508 11.3333 6.4161 11.3333 6.25033C11.3333 6.08457 11.2631 5.92559 11.1381 5.80837C11.013 5.69116 10.8435 5.6253 10.6667 5.6253C10.4899 5.6253 10.3203 5.69116 10.1953 5.80837C10.0702 5.92559 10 6.08457 10 6.25033C10 6.4161 10.0702 6.57508 10.1953 6.6923C10.3203 6.80951 10.4899 6.87537 10.6667 6.87537V6.87537ZM6 8.12543C6 8.29119 5.92976 8.45017 5.80474 8.56739C5.67971 8.68461 5.51014 8.75046 5.33333 8.75046C5.15652 8.75046 4.98695 8.68461 4.86193 8.56739C4.7369 8.45017 4.66667 8.29119 4.66667 8.12543C4.66667 7.95966 4.7369 7.80068 4.86193 7.68346C4.98695 7.56625 5.15652 7.5004 5.33333 7.5004C5.51014 7.5004 5.67971 7.56625 5.80474 7.68346C5.92976 7.80068 6 7.95966 6 8.12543V8.12543ZM8 8.75046C8.17681 8.75046 8.34638 8.68461 8.4714 8.56739C8.59643 8.45017 8.66667 8.29119 8.66667 8.12543C8.66667 7.95966 8.59643 7.80068 8.4714 7.68346C8.34638 7.56625 8.17681 7.5004 8 7.5004C7.82319 7.5004 7.65362 7.56625 7.5286 7.68346C7.40357 7.80068 7.33333 7.95966 7.33333 8.12543C7.33333 8.29119 7.40357 8.45017 7.5286 8.56739C7.65362 8.68461 7.82319 8.75046 8 8.75046V8.75046ZM11.3333 8.12543C11.3333 8.29119 11.2631 8.45017 11.1381 8.56739C11.013 8.68461 10.8435 8.75046 10.6667 8.75046C10.4899 8.75046 10.3203 8.68461 10.1953 8.56739C10.0702 8.45017 10 8.29119 10 8.12543C10 7.95966 10.0702 7.80068 10.1953 7.68346C10.3203 7.56625 10.4899 7.5004 10.6667 7.5004C10.8435 7.5004 11.013 7.56625 11.1381 7.68346C11.2631 7.80068 11.3333 7.95966 11.3333 8.12543V8.12543ZM5.33333 10.6255C5.51014 10.6255 5.67971 10.5597 5.80474 10.4425C5.92976 10.3253 6 10.1663 6 10.0005C6 9.83475 5.92976 9.67577 5.80474 9.55855C5.67971 9.44134 5.51014 9.37549 5.33333 9.37549C5.15652 9.37549 4.98695 9.44134 4.86193 9.55855C4.7369 9.67577 4.66667 9.83475 4.66667 10.0005C4.66667 10.1663 4.7369 10.3253 4.86193 10.4425C4.98695 10.5597 5.15652 10.6255 5.33333 10.6255ZM8.66667 10.0005C8.66667 10.1663 8.59643 10.3253 8.4714 10.4425C8.34638 10.5597 8.17681 10.6255 8 10.6255C7.82319 10.6255 7.65362 10.5597 7.5286 10.4425C7.40357 10.3253 7.33333 10.1663 7.33333 10.0005C7.33333 9.83475 7.40357 9.67577 7.5286 9.55855C7.65362 9.44134 7.82319 9.37549 8 9.37549C8.17681 9.37549 8.34638 9.44134 8.4714 9.55855C8.59643 9.67577 8.66667 9.83475 8.66667 10.0005V10.0005ZM10.6667 10.6255C10.8435 10.6255 11.013 10.5597 11.1381 10.4425C11.2631 10.3253 11.3333 10.1663 11.3333 10.0005C11.3333 9.83475 11.2631 9.67577 11.1381 9.55855C11.013 9.44134 10.8435 9.37549 10.6667 9.37549C10.4899 9.37549 10.3203 9.44134 10.1953 9.55855C10.0702 9.67577 10 9.83475 10 10.0005C10 10.1663 10.0702 10.3253 10.1953 10.4425C10.3203 10.5597 10.4899 10.6255 10.6667 10.6255V10.6255Z" fill="white"/>
</svg>
