<svg width="15" height="15" viewBox="0 0 15 15" fill="none" xmlns="http://www.w3.org/2000/svg">
<path fill-rule="evenodd" clip-rule="evenodd" d="M3.12497 1.87509C2.79345 1.87509 2.47551 2.00679 2.24109 2.24123C2.00667 2.47566 1.87497 2.79362 1.87497 3.12515V4.27396L0.931223 7.10535C0.875153 7.27377 0.855575 7.4522 0.87379 7.62877C0.892006 7.80534 0.947598 7.97601 1.03687 8.12944C1.12614 8.28287 1.24705 8.41553 1.39155 8.51861C1.53606 8.6217 1.70085 8.69284 1.87497 8.7273V12.5006C1.87497 12.8322 2.00667 13.1501 2.24109 13.3845C2.47551 13.619 2.79345 13.7507 3.12497 13.7507H11.875C12.2065 13.7507 12.5244 13.619 12.7589 13.3845C12.9933 13.1501 13.125 12.8322 13.125 12.5006V8.7273C13.2991 8.69284 13.4639 8.6217 13.6084 8.51861C13.7529 8.41553 13.8738 8.28287 13.9631 8.12944C14.0523 7.97601 14.1079 7.80534 14.1262 7.62877C14.1444 7.4522 14.1248 7.27377 14.0687 7.10535L13.125 4.27333V3.12515C13.125 2.79362 12.9933 2.47566 12.7589 2.24123C12.5244 2.00679 12.2065 1.87509 11.875 1.87509H3.12497ZM9.37497 12.5006H11.875V8.75043H3.12497V12.5006H5.62497V10.6255C5.62497 10.1282 5.82252 9.65128 6.17415 9.29963C6.52578 8.94798 7.00269 8.75043 7.49997 8.75043C7.99725 8.75043 8.47417 8.94798 8.8258 9.29963C9.17743 9.65128 9.37497 10.1282 9.37497 10.6255V12.5006ZM6.87497 12.5006H8.12497V10.6255C8.12497 10.4598 8.05912 10.3008 7.94191 10.1836C7.8247 10.0663 7.66573 10.0005 7.49997 10.0005C7.33421 10.0005 7.17524 10.0663 7.05803 10.1836C6.94082 10.3008 6.87497 10.4598 6.87497 10.6255V12.5006ZM2.11685 7.50037L2.9506 5.00025H3.94997L3.5331 7.50037H2.11685V7.50037ZM4.79997 7.50037L5.21685 5.00025H6.87497V7.50037H4.79997ZM8.12497 7.50037V5.00025H9.7831L10.2 7.50037H8.12497ZM11.4668 7.50037L11.05 5.00025H12.05L12.8831 7.50037H11.4668ZM11.875 3.12515V3.75018H3.12497V3.12515H11.875Z" fill="white"/>
</svg>
